# xmcd CD database file
#
# Track frame offsets:
#	150
#	32056
#	46825
#	62268
#	76308
#	86867
#	98477
#	111640
#	141958
#	155283
#	165976
#	176869
#	192557
#	205895
#	218145
#	231931
#	249787
#
# Disc length: 3525 seconds
#
# Revision: 0
# Processed by: cddbd v1.5.1PL0 Copyright (c) Steve Scherf et al.
# Submitted via: CDex 1.51
#
DISCID=e20dc311
DTITLE=Hooded Claw - VV Summer Swap 2005
DYEAR=2005
DGENRE=Jazz
TTITLE0=Elephants Memory - Old Man Willow
TTITLE1=Skurow - Keep Your Funky Side Out
TTITLE2=Edgar Winter Group - Frankenstein
TTITLE3=Pink Floyd - Take Up Thy Stethoscope and Walk
TTITLE4=Dr John - One Night Late
TTITLE5=Jimmy Hendrix and Curtis Knight - Flashing
TTITLE6=Edan - Beauty
TTITLE7=Ramsey Lewis - (Them) Changes
TTITLE8=Johnny Hammond - Rock Steady
TTITLE9=Howard Johnson - Slide
TTITLE10=Dyke and The Blazers - Runaway People
TTITLE11=Black Heat - Chips Funk
TTITLE12=The Manhattans - Follow Your Heart
TTITLE13=Jimmy Highes - Neighbour Neighbour
TTITLE14=Jose Feliciano - Work Song
TTITLE15=Cruff Rhys - Ny Yw Y Bid
TTITLE16=Johnny Clarke - Declaration Of Rights
EXTD=YEAR: 2005
EXTT0=
EXTT1=
EXTT2=
EXTT3=
EXTT4=
EXTT5=
EXTT6=
EXTT7=
EXTT8=
EXTT9=
EXTT10=
EXTT11=
EXTT12=
EXTT13=
EXTT14=
EXTT15=
EXTT16=
PLAYORDER=
